<svg xmlns="http://www.w3.org/2000/svg" viewBox="0 0 32 32" fill="#2563eb"><circle cx="16" cy="16" r="16" fill="#fff"/><path d="M16 8c-4.4 0-8 3.6-8 8 0 3.6 2.4 6.6 5.6 7.6.4.1.4-.2.4-.4v-1.2c-2.3.5-2.8-1-2.8-1-.4-1-.9-1.3-.9-1.3-.7-.5.1-.5.1-.5.8.1 1.2.8 1.2.8.7 1.2 1.9.9 2.4.7.1-.5.3-.9.6-1.1-1.8-.2-3.6-.9-3.6-3.8 0-.8.3-1.4.7-2-.1-.2-.3-1 .1-2 0 0 .6-.2 2 .7.6-.2 1.3-.3 2-.3s1.4.1 2 .3c1.4-.9 2-.7 2-.7.4 1 .2 1.8.1 2 .4.6.7 1.2.7 2 0 2.9-1.8 3.6-3.6 3.8.3.3.6.7.6 1.4v2c0 .2.1.5.4.4C21.6 22.6 24 19.6 24 16c0-4.4-3.6-8-8-8z"/></svg>
