<svg xmlns="http://www.w3.org/2000/svg" viewBox="0 0 32 32" fill="#2563eb"><circle cx="16" cy="16" r="16" fill="#fff"/><path d="M25.6 11.2c-.7.3-1.4.5-2.1.6.8-.5 1.3-1.2 1.6-2.1-.7.4-1.5.7-2.3.9-.7-.7-1.6-1.1-2.6-1.1-2 0-3.5 1.9-3 3.8-3-.1-5.7-1.6-7.5-3.8-.3.6-.4 1.2-.4 1.9 0 1.3.7 2.4 1.7 3-.6 0-1.2-.2-1.7-.5v.1c0 1.8 1.3 3.2 3.1 3.5-.3.1-.6.2-.9.2-.2 0-.4 0-.6-.1.4 1.3 1.6 2.3 3.1 2.3-1.1.9-2.5 1.5-4 1.5-.3 0-.6 0-.9-.1 1.4.9 3 1.5 4.7 1.5 5.6 0 8.7-4.7 8.7-8.7v-.4c.6-.4 1.2-1 1.6-1.6z"/></svg>
